<?xml version="1.0" encoding="UTF-8"?>
<svg xmlns="http://www.w3.org/2000/svg" xmlns:xlink="http://www.w3.org/1999/xlink" width="150px" height="100px" viewBox="0 0 150 100" version="1.1">
<g id="surface1">
<path style=" stroke:none;fill-rule:nonzero;fill:rgb(0%,0%,0%);fill-opacity:1;" d="M 85.582031 47.320312 C 87.550781 47.273438 89.175781 48.664062 89.347656 50.429688 L 81.523438 50.429688 C 81.8125 48.609375 83.550781 47.21875 85.582031 47.320312 M 89.117188 53.640625 C 88.363281 54.65625 87.089844 55.25 85.753906 55.140625 C 83.550781 55.140625 81.929688 54.015625 81.523438 52.085938 L 91.320312 52.085938 C 91.378906 51.820312 91.378906 51.554688 91.378906 51.234375 C 91.378906 48.179688 89.058594 45.5 85.523438 45.5 C 82.21875 45.398438 79.492188 47.804688 79.378906 50.804688 C 79.378906 50.90625 79.378906 51.070312 79.378906 51.179688 C 79.378906 54.445312 81.871094 56.851562 85.640625 56.851562 C 87.726562 56.90625 89.640625 55.992188 90.796875 54.390625 Z M 89.117188 53.640625 "/>
<path style=" stroke:none;fill-rule:nonzero;fill:rgb(0%,0%,0%);fill-opacity:1;" d="M 76.476562 40.898438 L 78.507812 40.898438 L 78.507812 56.695312 L 76.476562 56.695312 Z M 76.476562 40.898438 "/>
<path style=" stroke:none;fill-rule:nonzero;fill:rgb(0%,0%,0%);fill-opacity:1;" d="M 102.742188 50 L 102.742188 56.640625 L 100.710938 56.640625 L 100.710938 50.109375 C 100.710938 48.34375 99.609375 47.320312 97.8125 47.320312 C 96.015625 47.320312 94.394531 48.34375 94.394531 50.90625 L 94.394531 56.640625 L 92.363281 56.640625 L 92.363281 45.828125 L 94.394531 45.828125 L 94.394531 47.375 C 95.203125 46.148438 96.65625 45.453125 98.21875 45.554688 C 100.945312 45.554688 102.742188 47.273438 102.742188 50 "/>
<path style=" stroke:none;fill-rule:nonzero;fill:rgb(0%,0%,0%);fill-opacity:1;" d="M 113.988281 51.234375 C 113.988281 49.09375 112.078125 47.429688 109.816406 47.429688 C 107.496094 47.429688 105.699219 49.195312 105.699219 51.28125 C 105.699219 53.375 107.554688 55.085938 109.875 55.085938 C 112.132812 55.140625 113.988281 53.476562 114.046875 51.390625 C 113.988281 51.335938 113.988281 51.28125 113.988281 51.234375 M 116.019531 40.898438 L 116.019531 56.695312 L 113.988281 56.695312 L 113.988281 54.820312 C 113.003906 56.210938 111.324219 57.015625 109.582031 56.960938 C 106.164062 56.851562 103.496094 54.226562 103.613281 51.070312 C 103.726562 48.070312 106.335938 45.664062 109.582031 45.554688 C 111.378906 45.5 113.0625 46.304688 113.988281 47.695312 L 113.988281 40.898438 Z M 116.019531 40.898438 "/>
<path style=" stroke:none;fill-rule:nonzero;fill:rgb(0%,0%,0%);fill-opacity:1;" d="M 117.699219 40.898438 L 119.730469 40.898438 L 119.730469 56.695312 L 117.699219 56.695312 Z M 117.699219 40.898438 "/>
<path style=" stroke:none;fill-rule:nonzero;fill:rgb(0%,0%,0%);fill-opacity:1;" d="M 72.824219 51.234375 C 72.824219 49.09375 70.914062 47.429688 68.652344 47.429688 C 66.332031 47.429688 64.535156 49.195312 64.535156 51.28125 C 64.535156 53.375 66.390625 55.085938 68.652344 55.085938 C 70.914062 55.140625 72.769531 53.476562 72.824219 51.390625 C 72.824219 51.335938 72.824219 51.28125 72.824219 51.234375 M 74.855469 45.828125 L 74.855469 56.640625 L 72.824219 56.640625 L 72.824219 54.820312 C 71.839844 56.210938 70.160156 57.015625 68.417969 56.960938 C 65 56.851562 62.332031 54.226562 62.449219 51.070312 C 62.5625 48.070312 65.171875 45.664062 68.417969 45.554688 C 70.21875 45.5 71.898438 46.304688 72.824219 47.695312 L 72.824219 45.828125 Z M 74.855469 45.828125 "/>
<path style=" stroke:none;fill-rule:nonzero;fill:rgb(0%,0%,0%);fill-opacity:1;" d="M 59.492188 54.601562 C 56.1875 55.726562 52.535156 54.226562 51.257812 51.179688 C 50.039062 48.125 51.664062 44.75 54.96875 43.578125 C 57.578125 42.664062 60.535156 43.414062 62.273438 45.5 L 64.011719 44.328125 C 61.113281 40.898438 55.78125 40.257812 52.070312 42.882812 C 48.359375 45.554688 47.664062 50.484375 50.503906 53.90625 C 53.402344 57.335938 58.738281 57.976562 62.449219 55.351562 L 62.507812 55.351562 L 61.347656 53.640625 C 60.765625 54.070312 60.128906 54.390625 59.492188 54.601562 "/>
<path style=" stroke:none;fill-rule:nonzero;fill:rgb(0%,0%,0%);fill-opacity:1;" d="M 129.527344 45.828125 L 129.527344 51.984375 C 129.527344 53.960938 128.308594 55.25 126.398438 55.25 C 124.484375 55.25 123.09375 54.015625 123.09375 51.984375 L 123.09375 45.828125 L 121.003906 45.828125 L 121.003906 51.765625 C 121.003906 54.875 123.09375 56.90625 126.339844 56.90625 C 129.121094 56.90625 129.585938 55.25 129.585938 55.25 L 129.585938 57.492188 C 129.585938 59.6875 128.542969 60.921875 126.398438 60.921875 C 124.832031 60.921875 123.441406 59.851562 123.265625 58.40625 L 121.410156 58.992188 C 121.933594 61.132812 124.019531 62.632812 126.398438 62.632812 C 129.703125 62.632812 131.554688 60.601562 131.554688 57.492188 L 131.554688 45.828125 Z M 129.527344 45.828125 "/>
<path style=" stroke:none;fill-rule:nonzero;fill:rgb(0%,0%,0%);fill-opacity:1;" d="M 35.023438 52.140625 C 34.097656 53.054688 32.820312 53.585938 31.488281 53.585938 L 30.386719 53.585938 C 29.167969 53.585938 27.953125 53.15625 27.082031 52.351562 C 26.269531 51.554688 25.804688 50.539062 25.863281 49.460938 L 25.863281 48.125 C 25.863281 47 26.328125 45.984375 27.140625 45.179688 C 28.007812 44.382812 29.167969 43.953125 30.386719 43.953125 L 31.429688 43.953125 C 32.765625 43.953125 34.097656 44.484375 35.023438 45.398438 C 35.894531 46.25 37.113281 46.679688 38.386719 46.625 C 38.675781 46.625 38.96875 46.625 39.257812 46.570312 C 39.140625 46.304688 39.023438 46.039062 38.851562 45.828125 L 37.574219 43.84375 C 36.417969 42.023438 34.328125 40.898438 32.011719 40.898438 L 29.515625 40.898438 C 27.199219 40.898438 25.109375 42.023438 23.953125 43.84375 L 22.675781 45.828125 C 21.515625 47.648438 21.515625 49.945312 22.675781 51.765625 L 23.953125 53.804688 C 25.109375 55.617188 27.199219 56.742188 29.515625 56.742188 L 32.011719 56.742188 C 34.328125 56.742188 36.417969 55.617188 37.574219 53.804688 L 38.851562 51.820312 C 39.023438 51.609375 39.140625 51.335938 39.257812 51.070312 C 38.96875 51.015625 38.675781 51.015625 38.386719 51.015625 C 37.113281 50.859375 35.894531 51.28125 35.023438 52.140625 "/>
<path style=" stroke:none;fill-rule:nonzero;fill:rgb(0%,0%,0%);fill-opacity:1;" d="M 31.429688 45.179688 L 30.328125 45.179688 C 28.648438 45.125 27.199219 46.304688 27.082031 47.914062 C 27.082031 47.96875 27.082031 48.070312 27.082031 48.125 L 27.082031 49.460938 C 27.023438 51.015625 28.414062 52.351562 30.097656 52.351562 C 30.15625 52.351562 30.210938 52.351562 30.328125 52.351562 L 31.371094 52.351562 C 34.214844 52.351562 33.980469 49.679688 38.273438 49.679688 C 38.675781 49.679688 39.082031 49.734375 39.488281 49.789062 C 39.605469 49.09375 39.605469 48.390625 39.488281 47.75 C 39.082031 47.804688 38.675781 47.859375 38.273438 47.859375 C 34.097656 47.859375 34.328125 45.179688 31.429688 45.179688 "/>
<path style=" stroke:none;fill-rule:nonzero;fill:rgb(0%,0%,0%);fill-opacity:1;" d="M 42.039062 50.75 C 41.285156 50.265625 40.476562 49.945312 39.546875 49.789062 C 39.488281 50.164062 39.375 50.585938 39.199219 50.960938 C 39.953125 51.070312 40.648438 51.335938 41.226562 51.710938 C 39.429688 57.0625 33.285156 60.0625 27.429688 58.460938 C 21.574219 56.851562 18.386719 51.125 20.183594 45.71875 C 21.980469 40.3125 28.125 37.367188 33.980469 38.96875 C 37.460938 39.992188 40.183594 42.507812 41.285156 45.71875 C 40.707031 46.148438 40.011719 46.359375 39.257812 46.46875 C 39.429688 46.84375 39.546875 47.21875 39.605469 47.648438 C 40.476562 47.539062 41.34375 47.21875 42.097656 46.789062 C 42.621094 46.523438 42.792969 45.929688 42.5625 45.453125 C 40.53125 39.453125 33.632812 36.078125 27.140625 37.898438 C 20.648438 39.773438 16.992188 46.148438 18.964844 52.140625 C 20.9375 58.140625 27.894531 61.507812 34.386719 59.6875 C 38.273438 58.5625 41.34375 55.78125 42.5625 52.140625 C 42.734375 51.65625 42.5625 51.070312 42.039062 50.75 "/>
<path style=" stroke:none;fill-rule:nonzero;fill:rgb(0%,0%,0%);fill-opacity:1;" d="M 39.199219 46.570312 C 38.910156 46.625 38.621094 46.625 38.328125 46.625 C 37.054688 46.679688 35.835938 46.25 34.96875 45.398438 C 34.039062 44.484375 32.765625 44.007812 31.429688 43.953125 L 30.328125 43.953125 C 29.109375 43.953125 27.953125 44.382812 27.082031 45.179688 C 26.269531 45.984375 25.804688 47 25.804688 48.125 L 25.804688 49.460938 C 25.804688 50.539062 26.269531 51.609375 27.082031 52.40625 C 27.953125 53.210938 29.109375 53.640625 30.328125 53.585938 L 31.371094 53.585938 C 32.707031 53.585938 34.039062 53.054688 34.96875 52.140625 C 35.835938 51.28125 37.054688 50.804688 38.328125 50.90625 C 38.621094 50.90625 38.910156 50.90625 39.199219 50.960938 C 39.375 50.585938 39.488281 50.210938 39.546875 49.789062 C 39.140625 49.734375 38.734375 49.679688 38.328125 49.679688 C 34.039062 49.679688 34.269531 52.351562 31.429688 52.351562 L 30.328125 52.351562 C 28.648438 52.40625 27.199219 51.179688 27.140625 49.625 C 27.140625 49.570312 27.140625 49.515625 27.140625 49.460938 L 27.140625 48.070312 C 27.082031 46.523438 28.472656 45.179688 30.15625 45.125 C 30.210938 45.125 30.269531 45.125 30.328125 45.125 L 31.371094 45.125 C 34.214844 45.125 33.980469 47.804688 38.273438 47.804688 C 38.675781 47.804688 39.082031 47.75 39.488281 47.695312 C 39.488281 47.375 39.375 47 39.199219 46.570312 "/>
<path style=" stroke:none;fill-rule:nonzero;fill:rgb(0%,0%,0%);fill-opacity:1;" d="M 39.199219 46.570312 C 38.910156 46.625 38.621094 46.625 38.328125 46.625 C 37.054688 46.679688 35.835938 46.25 34.96875 45.398438 C 34.039062 44.484375 32.765625 44.007812 31.429688 43.953125 L 30.328125 43.953125 C 29.109375 43.953125 27.953125 44.382812 27.082031 45.179688 C 26.269531 45.984375 25.804688 47 25.804688 48.125 L 25.804688 49.460938 C 25.804688 50.539062 26.269531 51.609375 27.082031 52.40625 C 27.953125 53.210938 29.109375 53.640625 30.328125 53.585938 L 31.371094 53.585938 C 32.707031 53.585938 34.039062 53.054688 34.96875 52.140625 C 35.835938 51.28125 37.054688 50.804688 38.328125 50.90625 C 38.621094 50.90625 38.910156 50.90625 39.199219 50.960938 C 39.375 50.585938 39.488281 50.210938 39.546875 49.789062 C 39.140625 49.734375 38.734375 49.679688 38.328125 49.679688 C 34.039062 49.679688 34.269531 52.351562 31.429688 52.351562 L 30.328125 52.351562 C 28.648438 52.40625 27.199219 51.179688 27.140625 49.625 C 27.140625 49.570312 27.140625 49.515625 27.140625 49.460938 L 27.140625 48.070312 C 27.082031 46.523438 28.472656 45.179688 30.15625 45.125 C 30.210938 45.125 30.269531 45.125 30.328125 45.125 L 31.371094 45.125 C 34.214844 45.125 33.980469 47.804688 38.273438 47.804688 C 38.675781 47.804688 39.082031 47.75 39.488281 47.695312 C 39.488281 47.375 39.375 47 39.199219 46.570312 "/>
</g>
</svg>
